<?xml version="1.0" encoding="utf-8"?>
<!-- Generator: Adobe Illustrator 27.5.0, SVG Export Plug-In . SVG Version: 6.00 Build 0)  -->
<svg version="1.1" id="Layer_1" xmlns="http://www.w3.org/2000/svg" xmlns:xlink="http://www.w3.org/1999/xlink" x="0px" y="0px"
	 viewBox="0 0 483 295.6" style="enable-background:new 0 0 483 295.6;" xml:space="preserve">
<style type="text/css">
	.st0{fill:#FFB199;stroke:#000000;stroke-width:0.5;stroke-miterlimit:10;}
	.st1{fill:#FFB199;stroke:#FFB199;stroke-width:0.75;stroke-miterlimit:10;}
	.st2{fill:#FFB199;stroke:#FFB199;stroke-width:2.0243;stroke-miterlimit:10;}
	.st3{fill:#333333;stroke:#000000;stroke-width:0.973;stroke-miterlimit:10;}
	.st4{opacity:0.82;fill:#333333;stroke:#000000;stroke-width:1.0516;stroke-miterlimit:10;}
	.st5{opacity:0.82;fill:#333333;}
	.st6{fill:#333333;stroke:#000000;stroke-width:1.0516;stroke-miterlimit:10;}
	.st7{opacity:0.82;fill:#333333;stroke:#000000;stroke-width:0.973;stroke-miterlimit:10;}
</style>
<polygon class="st0" points="86.5,48.5 269.6,2.5 284.4,19.5 74.9,75.2 "/>
<path class="st1" d="M199.6,42l-20,239.8L0.2,132.5c0,0,162.2,113.8,162.2,111.4s17.2-198.1,17.2-198.1"/>
<path class="st2" d="M302.4,176.9L479.1,75.2L297.2,6.6l-4.4,49.2c0,0-17.2,195.6-17.2,198.1c0,2.4-162.4-111.4-162.4-111.4
	l179.7,149.4L302.4,176.9l0.3-4.1l10.1-120.9l138.3,27.3l-146.7,82.7"/>
<path class="st3" d="M196.4,268.8"/>
<polyline class="st4" points="0.2,132.5 163,235.5 162.4,243.9 "/>
<polyline class="st4" points="113.2,142.4 276,245.4 275.3,253.8 "/>
<path class="st5" d="M216.3,37.6c-5.3,1.4-10.7,2.8-16,4.3c-6.7,80.3-13.4,160.5-20.1,240.8c5.6-4,11.2-8,16.8-12"/>
<path class="st6" d="M312.8,51.9"/>
<path class="st7" d="M330.3,55.4c0.6,0.1-15.6-1.3-15.6-1.3l-20,237.7l16.8-12"/>
</svg>
